<svg width="35" height="35" viewBox="0 0 35 35" fill="none" xmlns="http://www.w3.org/2000/svg">
<path d="M23.3333 33.177H4.37496C2.97496 33.177 1.82288 32.025 1.82288 30.625V11.6666C1.82288 5.22079 5.22079 1.82288 11.6666 1.82288H23.3333C29.7791 1.82288 33.177 5.22079 33.177 11.6666V23.3333C33.177 29.7791 29.7791 33.177 23.3333 33.177ZM11.6666 4.01038C6.44579 4.01038 4.01038 6.44579 4.01038 11.6666V30.625C4.01038 30.8291 4.17079 30.9895 4.37496 30.9895H23.3333C28.5541 30.9895 30.9895 28.5541 30.9895 23.3333V11.6666C30.9895 6.44579 28.5541 4.01038 23.3333 4.01038H11.6666Z" fill="url(#paint0_linear_274_7611)"/>
<path d="M22.6042 18.5938H12.3959C11.798 18.5938 11.3021 18.0979 11.3021 17.5C11.3021 16.9021 11.798 16.4062 12.3959 16.4062H22.6042C23.2021 16.4062 23.698 16.9021 23.698 17.5C23.698 18.0979 23.2021 18.5938 22.6042 18.5938Z" fill="url(#paint1_linear_274_7611)"/>
<path d="M17.5 23.698C16.9021 23.698 16.4062 23.2021 16.4062 22.6042V12.3959C16.4062 11.798 16.9021 11.3021 17.5 11.3021C18.0979 11.3021 18.5938 11.798 18.5938 12.3959V22.6042C18.5938 23.2021 18.0979 23.698 17.5 23.698Z" fill="url(#paint2_linear_274_7611)"/>
<defs>
<linearGradient id="paint0_linear_274_7611" x1="1.82288" y1="16.0069" x2="33.177" y2="16.0069" gradientUnits="userSpaceOnUse">
<stop stop-color="#B224EF"/>
<stop offset="1" stop-color="#7579FF"/>
</linearGradient>
<linearGradient id="paint1_linear_274_7611" x1="11.3021" y1="17.3958" x2="23.698" y2="17.3958" gradientUnits="userSpaceOnUse">
<stop stop-color="#B224EF"/>
<stop offset="1" stop-color="#7579FF"/>
</linearGradient>
<linearGradient id="paint2_linear_274_7611" x1="16.4062" y1="16.9098" x2="18.5937" y2="16.9098" gradientUnits="userSpaceOnUse">
<stop stop-color="#B224EF"/>
<stop offset="1" stop-color="#7579FF"/>
</linearGradient>
</defs>
</svg>
