<svg width="24" height="24" viewBox="0 0 24 24" fill="none" xmlns="http://www.w3.org/2000/svg">
<path fill-rule="evenodd" clip-rule="evenodd" d="M4.34175 7.24744C4.75739 6.88375 5.38915 6.92587 5.75283 7.34151L12.0003 14.4814L18.2477 7.34151C18.6114 6.92587 19.2431 6.88375 19.6588 7.24744C20.0744 7.61112 20.1165 8.24288 19.7528 8.65852L13.1291 16.2285C12.5315 16.9115 11.469 16.9115 10.8714 16.2285L4.24768 8.65852C3.884 8.24288 3.92612 7.61112 4.34175 7.24744Z" fill="white"/>
<path fill-rule="evenodd" clip-rule="evenodd" d="M4.34175 7.24744C4.75739 6.88375 5.38915 6.92587 5.75283 7.34151L12.0003 14.4814L18.2477 7.34151C18.6114 6.92587 19.2431 6.88375 19.6588 7.24744C20.0744 7.61112 20.1165 8.24288 19.7528 8.65852L13.1291 16.2285C12.5315 16.9115 11.469 16.9115 10.8714 16.2285L4.24768 8.65852C3.884 8.24288 3.92612 7.61112 4.34175 7.24744Z" fill="white" fill-opacity="0.3"/>
<path fill-rule="evenodd" clip-rule="evenodd" d="M4.34175 7.24744C4.75739 6.88375 5.38915 6.92587 5.75283 7.34151L12.0003 14.4814L18.2477 7.34151C18.6114 6.92587 19.2431 6.88375 19.6588 7.24744C20.0744 7.61112 20.1165 8.24288 19.7528 8.65852L13.1291 16.2285C12.5315 16.9115 11.469 16.9115 10.8714 16.2285L4.24768 8.65852C3.884 8.24288 3.92612 7.61112 4.34175 7.24744Z" fill="white" fill-opacity="0.65"/>
</svg>
