<svg width="45" height="45" viewBox="0 0 45 45" fill="none" xmlns="http://www.w3.org/2000/svg">
<path d="M32.7188 42.6562C30.6 42.6562 28.3687 42.15 26.0625 41.175C23.8125 40.2187 21.5438 38.9062 19.3313 37.3125C17.1375 35.7 15.0188 33.9 13.0125 31.9313C11.025 29.925 9.225 27.8063 7.63125 25.6313C6.01875 23.3813 4.725 21.1312 3.80625 18.9562C2.83125 16.6312 2.34375 14.3812 2.34375 12.2625C2.34375 10.8 2.60625 9.4125 3.1125 8.11875C3.6375 6.7875 4.48125 5.55 5.625 4.48125C7.06875 3.05625 8.71875 2.34375 10.4813 2.34375C11.2125 2.34375 11.9625 2.5125 12.6 2.8125C13.3312 3.15 13.95 3.65625 14.4 4.33125L18.75 10.4625C19.1437 11.0062 19.4437 11.5312 19.65 12.0562C19.8937 12.6187 20.025 13.1813 20.025 13.725C20.025 14.4375 19.8187 15.1313 19.425 15.7875C19.1437 16.2938 18.7125 16.8375 18.1687 17.3813L16.8938 18.7125C16.9125 18.7687 16.9312 18.8063 16.95 18.8438C17.175 19.2375 17.625 19.9125 18.4875 20.925C19.4062 21.975 20.2688 22.9312 21.1313 23.8125C22.2375 24.9 23.1563 25.7625 24.0188 26.475C25.0875 27.375 25.7813 27.825 26.1938 28.0312L26.1562 28.125L27.525 26.775C28.1063 26.1937 28.6687 25.7625 29.2125 25.4813C30.2437 24.8438 31.5563 24.7312 32.8688 25.275C33.3563 25.4812 33.8813 25.7625 34.4438 26.1562L40.6688 30.5812C41.3625 31.05 41.8687 31.65 42.1687 32.3625C42.45 33.075 42.5812 33.7313 42.5812 34.3875C42.5812 35.2875 42.375 36.1875 41.9812 37.0312C41.5875 37.875 41.1 38.6063 40.4813 39.2813C39.4125 40.4625 38.25 41.3062 36.9 41.85C35.6063 42.375 34.2 42.6562 32.7188 42.6562ZM10.4813 5.15625C9.45 5.15625 8.49375 5.60625 7.575 6.50625C6.7125 7.3125 6.1125 8.19375 5.7375 9.15C5.34375 10.125 5.15625 11.1562 5.15625 12.2625C5.15625 14.0062 5.56875 15.9 6.39375 17.85C7.2375 19.8375 8.41875 21.9 9.91875 23.9625C11.4187 26.025 13.125 28.0313 15 29.925C16.875 31.7813 18.9 33.5063 20.9812 35.025C23.0062 36.5063 25.0875 37.7062 27.15 38.5687C30.3562 39.9375 33.3563 40.2563 35.8313 39.225C36.7875 38.8313 37.6312 38.2313 38.4 37.3688C38.8312 36.9 39.1688 36.3938 39.45 35.7938C39.675 35.325 39.7875 34.8375 39.7875 34.35C39.7875 34.05 39.7313 33.75 39.5813 33.4125C39.525 33.3 39.4125 33.0938 39.0562 32.85L32.8313 28.425C32.4563 28.1625 32.1187 27.975 31.8 27.8438C31.3875 27.675 31.2187 27.5063 30.5812 27.9C30.2062 28.0875 29.8687 28.3687 29.4937 28.7437L28.0688 30.15C27.3375 30.8625 26.2125 31.0312 25.35 30.7125L24.8438 30.4875C24.075 30.075 23.175 29.4375 22.1812 28.5938C21.2812 27.825 20.3062 26.925 19.125 25.7625C18.2062 24.825 17.2875 23.8312 16.3313 22.725C15.45 21.6937 14.8125 20.8125 14.4188 20.0813L14.1938 19.5187C14.0813 19.0875 14.0437 18.8437 14.0437 18.5812C14.0437 17.9062 14.2875 17.3062 14.7562 16.8375L16.1625 15.375C16.5375 15 16.8187 14.6437 17.0062 14.325C17.1562 14.0812 17.2125 13.875 17.2125 13.6875C17.2125 13.5375 17.1563 13.3125 17.0625 13.0875C16.9313 12.7875 16.725 12.45 16.4625 12.0937L12.1125 5.94375C11.925 5.68125 11.7 5.49375 11.4188 5.3625C11.1188 5.23125 10.8 5.15625 10.4813 5.15625ZM26.1562 28.1438L25.8562 29.4187L26.3625 28.1062C26.2688 28.0875 26.1937 28.1063 26.1562 28.1438Z" fill="url(#paint0_linear_428_7589)"/>
<defs>
<linearGradient id="paint0_linear_428_7589" x1="2.34375" y1="20.5804" x2="42.5812" y2="20.5804" gradientUnits="userSpaceOnUse">
<stop stop-color="#B224EF"/>
<stop offset="1" stop-color="#7579FF"/>
</linearGradient>
</defs>
</svg>
