<svg width="16" height="16" viewBox="0 0 16 16" fill="none" xmlns="http://www.w3.org/2000/svg">
<path fill-rule="evenodd" clip-rule="evenodd" d="M13.734 0.733927C14.1571 0.310859 14.843 0.310859 15.2661 0.733927C15.6891 1.15699 15.6891 1.84292 15.2661 2.26599L9.53209 7.99996L15.2661 13.7339C15.6891 14.157 15.6891 14.8429 15.2661 15.266C14.843 15.6891 14.1571 15.6891 13.734 15.266L8.00002 9.53202L2.26605 15.266C1.84299 15.6891 1.15706 15.6891 0.733988 15.266C0.31092 14.8429 0.31092 14.157 0.733988 13.7339L6.46796 7.99996L0.733989 2.26599C0.31092 1.84292 0.31092 1.15699 0.733989 0.733927C1.15706 0.310859 1.84299 0.310859 2.26605 0.733927L8.00002 6.46789L13.734 0.733927Z" fill="url(#paint0_linear_206_644)"/>
<defs>
<linearGradient id="paint0_linear_206_644" x1="0.416687" y1="7.27774" x2="15.5834" y2="7.27774" gradientUnits="userSpaceOnUse">
<stop stop-color="#B224EF"/>
<stop offset="1" stop-color="#7579FF"/>
</linearGradient>
</defs>
</svg>
