<svg width="45" height="45" viewBox="0 0 45 45" fill="none" xmlns="http://www.w3.org/2000/svg">
<path d="M31.875 39.8438H13.125C6.28125 39.8438 2.34375 35.9062 2.34375 29.0625V15.9375C2.34375 9.09375 6.28125 5.15625 13.125 5.15625H31.875C38.7188 5.15625 42.6562 9.09375 42.6562 15.9375V29.0625C42.6562 35.9062 38.7188 39.8438 31.875 39.8438ZM13.125 7.96875C7.7625 7.96875 5.15625 10.575 5.15625 15.9375V29.0625C5.15625 34.425 7.7625 37.0312 13.125 37.0312H31.875C37.2375 37.0312 39.8438 34.425 39.8438 29.0625V15.9375C39.8438 10.575 37.2375 7.96875 31.875 7.96875H13.125Z" fill="url(#paint0_linear_300_7908)"/>
<path d="M22.4997 24.1312C20.9247 24.1312 19.331 23.6437 18.1122 22.6499L12.2435 17.9624C11.6435 17.4749 11.531 16.5937 12.0185 15.9937C12.506 15.3937 13.3872 15.2812 13.9872 15.7687L19.8559 20.4562C21.2809 21.6 23.6997 21.6 25.1247 20.4562L30.9935 15.7687C31.5935 15.2812 32.4935 15.3749 32.9622 15.9937C33.4497 16.5937 33.356 17.4937 32.7372 17.9624L26.8685 22.6499C25.6685 23.6437 24.0747 24.1312 22.4997 24.1312Z" fill="url(#paint1_linear_300_7908)"/>
<defs>
<linearGradient id="paint0_linear_300_7908" x1="2.34375" y1="20.8482" x2="42.6562" y2="20.8482" gradientUnits="userSpaceOnUse">
<stop stop-color="#B224EF"/>
<stop offset="1" stop-color="#7579FF"/>
</linearGradient>
<linearGradient id="paint1_linear_300_7908" x1="11.7134" y1="19.3815" x2="33.2731" y2="19.3815" gradientUnits="userSpaceOnUse">
<stop stop-color="#B224EF"/>
<stop offset="1" stop-color="#7579FF"/>
</linearGradient>
</defs>
</svg>
