<svg width="83" height="60" viewBox="0 0 83 60" fill="none" xmlns="http://www.w3.org/2000/svg">
<g filter="url(#filter0_i_300_8023)">
<rect width="83" height="60" rx="21" fill="url(#paint0_linear_300_8023)"/>
</g>
<path d="M39.3055 47.0209C38.5455 47.0209 37.7856 46.8309 37.0889 46.4509C35.6797 45.6592 34.8405 44.25 34.8405 42.6509V34.1801C34.8405 33.3726 34.318 32.185 33.8271 31.5675L27.8105 25.25C26.813 24.2525 26.0372 22.5109 26.0372 21.2284V17.5551C26.0372 15.0059 27.9689 13.0109 30.423 13.0109H51.5446C53.9671 13.0109 55.9305 14.9742 55.9305 17.3967V20.9117C55.9305 22.5742 54.933 24.49 53.983 25.4242C53.5239 25.8834 52.7639 25.8834 52.3047 25.4242C51.8455 24.965 51.8455 24.205 52.3047 23.7459C52.8905 23.16 53.5555 21.8459 53.5555 20.9117V17.3967C53.5555 16.2884 52.653 15.3859 51.5446 15.3859H30.423C29.2989 15.3859 28.4122 16.3359 28.4122 17.5551V21.2284C28.4122 21.8142 28.8872 22.9701 29.5047 23.5876L35.6006 30C36.4081 30.9975 37.1997 32.6759 37.1997 34.1801V42.6509C37.1997 43.6959 37.9122 44.2025 38.2289 44.3767C38.9097 44.7567 39.7172 44.7409 40.3506 44.3609L42.5672 42.9359C43.0263 42.6667 43.4697 41.7959 43.4697 41.21C43.4697 40.5609 44.008 40.0225 44.6572 40.0225C45.3064 40.0225 45.8447 40.5609 45.8447 41.21C45.8447 42.635 44.958 44.2659 43.8338 44.9467L41.6331 46.3717C40.9206 46.7992 40.113 47.0209 39.3055 47.0209Z" fill="white"/>
<path d="M47.4444 38.3441C43.9927 38.3441 41.1902 35.5417 41.1902 32.09C41.1902 28.6383 43.9927 25.8358 47.4444 25.8358C50.896 25.8358 53.6986 28.6383 53.6986 32.09C53.6986 35.5417 50.896 38.3441 47.4444 38.3441ZM47.4444 28.2108C45.3069 28.2108 43.5652 29.9525 43.5652 32.09C43.5652 34.2275 45.3069 35.9691 47.4444 35.9691C49.5819 35.9691 51.3236 34.2275 51.3236 32.09C51.3236 29.9525 49.5819 28.2108 47.4444 28.2108Z" fill="white"/>
<path d="M53.4609 39.2942C53.16 39.2942 52.8592 39.1833 52.6217 38.9458L51.0384 37.3625C50.5792 36.9033 50.5792 36.1433 51.0384 35.6842C51.4976 35.225 52.2576 35.225 52.7167 35.6842L54.3001 37.2675C54.7592 37.7267 54.7592 38.4867 54.3001 38.9458C54.0784 39.1675 53.7617 39.2942 53.4609 39.2942Z" fill="white"/>
<defs>
<filter id="filter0_i_300_8023" x="0" y="0" width="83" height="64" filterUnits="userSpaceOnUse" color-interpolation-filters="sRGB">
<feFlood flood-opacity="0" result="BackgroundImageFix"/>
<feBlend mode="normal" in="SourceGraphic" in2="BackgroundImageFix" result="shape"/>
<feColorMatrix in="SourceAlpha" type="matrix" values="0 0 0 0 0 0 0 0 0 0 0 0 0 0 0 0 0 0 127 0" result="hardAlpha"/>
<feOffset dy="4"/>
<feGaussianBlur stdDeviation="2"/>
<feComposite in2="hardAlpha" operator="arithmetic" k2="-1" k3="1"/>
<feColorMatrix type="matrix" values="0 0 0 0 0 0 0 0 0 0 0 0 0 0 0 0 0 0 0.25 0"/>
<feBlend mode="normal" in2="shape" result="effect1_innerShadow_300_8023"/>
</filter>
<linearGradient id="paint0_linear_300_8023" x1="-1.44714e-06" y1="27.1429" x2="83" y2="27.1429" gradientUnits="userSpaceOnUse">
<stop stop-color="#B224EF"/>
<stop offset="1" stop-color="#7579FF"/>
</linearGradient>
</defs>
</svg>
