<svg width="375" height="146" viewBox="0 0 375 146" fill="none" xmlns="http://www.w3.org/2000/svg">
<path d="M-533 40.0157L-484.815 28.3522C-408.15 9.79489 -327.898 12.2639 -252.518 35.4991L-215.54 46.8973C-148.233 67.6441 -75.9918 65.838 -9.80597 41.7538C57.3535 17.3154 130.719 15.8248 198.816 37.5153L244.479 52.0601C300.094 69.7751 358.554 76.8314 416.788 72.8585L492.722 67.6779C528.618 65.2289 564.145 58.9126 598.685 48.8385L609.71 45.6232C702.709 18.4992 801.585 18.9753 894.319 46.9937L914 52.9403V179.781L-533 185V40.0157Z" fill="url(#paint0_linear_807_7673)" fill-opacity="0.2"/>
<path d="M-533 73.5L-434.508 48.6727C-374.491 33.5441 -311.389 36.0008 -252.73 55.7496L-222.715 65.8549C-169.699 83.7037 -112.07 82.1602 -60.0863 61.4992C-7.3432 40.5366 51.184 39.2634 104.789 57.9126L123.323 64.3607C177.502 83.2097 236.52 82.8206 290.446 63.2589C337.608 46.1508 388.831 43.6526 437.433 56.09L465.609 63.3001C524.582 78.3912 586.791 74.7394 643.593 52.8523C694.245 33.335 749.323 28.2724 802.684 38.2292L914 59V185H-533V73.5Z" fill="url(#paint1_linear_807_7673)" fill-opacity="0.4"/>
<path d="M-533 37L-434.492 57.3937C-372.951 70.1342 -309.373 69.3173 -248.179 54.9995C-197.314 43.0982 -144.713 40.5054 -92.9236 47.3465L-53.3219 52.5777C-8.87964 58.4483 36.1504 58.3156 80.5574 52.183L107.405 48.4753C162.382 40.8831 218.26 42.9207 272.538 54.4968C339.005 68.6726 407.73 68.5152 474.132 54.0351L476.056 53.6156C526.531 42.6086 578.435 39.6989 629.824 44.9956L681.501 50.322C715.492 53.8255 749.754 53.8352 783.747 50.3509L914 37V185H-533V37Z" fill="url(#paint2_linear_807_7673)" fill-opacity="0.6"/>
<path d="M76.5504 125.03V125.77H74.6504V132H73.7404V125.77H71.8304V125.03H76.5504ZM80.0606 132.09C79.5472 132.09 79.0806 131.973 78.6606 131.74C78.2472 131.507 77.9206 131.177 77.6806 130.75C77.4472 130.317 77.3306 129.817 77.3306 129.25C77.3306 128.69 77.4506 128.197 77.6906 127.77C77.9372 127.337 78.2706 127.007 78.6906 126.78C79.1106 126.547 79.5806 126.43 80.1006 126.43C80.6206 126.43 81.0906 126.547 81.5106 126.78C81.9306 127.007 82.2606 127.333 82.5006 127.76C82.7472 128.187 82.8706 128.683 82.8706 129.25C82.8706 129.817 82.7439 130.317 82.4906 130.75C82.2439 131.177 81.9072 131.507 81.4806 131.74C81.0539 131.973 80.5806 132.09 80.0606 132.09ZM80.0606 131.29C80.3872 131.29 80.6939 131.213 80.9806 131.06C81.2672 130.907 81.4972 130.677 81.6706 130.37C81.8506 130.063 81.9406 129.69 81.9406 129.25C81.9406 128.81 81.8539 128.437 81.6806 128.13C81.5072 127.823 81.2806 127.597 81.0006 127.45C80.7206 127.297 80.4172 127.22 80.0906 127.22C79.7572 127.22 79.4506 127.297 79.1706 127.45C78.8972 127.597 78.6772 127.823 78.5106 128.13C78.3439 128.437 78.2606 128.81 78.2606 129.25C78.2606 129.697 78.3406 130.073 78.5006 130.38C78.6672 130.687 78.8872 130.917 79.1606 131.07C79.4339 131.217 79.7339 131.29 80.0606 131.29ZM83.7271 129.24C83.7271 128.68 83.8404 128.19 84.0671 127.77C84.2937 127.343 84.6037 127.013 84.9971 126.78C85.3971 126.547 85.8437 126.43 86.3371 126.43C86.7637 126.43 87.1604 126.53 87.5271 126.73C87.8937 126.923 88.1737 127.18 88.3671 127.5V124.6H89.2871V132H88.3671V130.97C88.1871 131.297 87.9204 131.567 87.5671 131.78C87.2137 131.987 86.8004 132.09 86.3271 132.09C85.8404 132.09 85.3971 131.97 84.9971 131.73C84.6037 131.49 84.2937 131.153 84.0671 130.72C83.8404 130.287 83.7271 129.793 83.7271 129.24ZM88.3671 129.25C88.3671 128.837 88.2837 128.477 88.1171 128.17C87.9504 127.863 87.7237 127.63 87.4371 127.47C87.1571 127.303 86.8471 127.22 86.5071 127.22C86.1671 127.22 85.8571 127.3 85.5771 127.46C85.2971 127.62 85.0737 127.853 84.9071 128.16C84.7404 128.467 84.6571 128.827 84.6571 129.24C84.6571 129.66 84.7404 130.027 84.9071 130.34C85.0737 130.647 85.2971 130.883 85.5771 131.05C85.8571 131.21 86.1671 131.29 86.5071 131.29C86.8471 131.29 87.1571 131.21 87.4371 131.05C87.7237 130.883 87.9504 130.647 88.1171 130.34C88.2837 130.027 88.3671 129.663 88.3671 129.25ZM93.2149 132.09C92.7015 132.09 92.2349 131.973 91.8149 131.74C91.4015 131.507 91.0749 131.177 90.8349 130.75C90.6015 130.317 90.4849 129.817 90.4849 129.25C90.4849 128.69 90.6049 128.197 90.8449 127.77C91.0915 127.337 91.4249 127.007 91.8449 126.78C92.2649 126.547 92.7349 126.43 93.2549 126.43C93.7749 126.43 94.2449 126.547 94.6649 126.78C95.0849 127.007 95.4149 127.333 95.6549 127.76C95.9015 128.187 96.0249 128.683 96.0249 129.25C96.0249 129.817 95.8982 130.317 95.6449 130.75C95.3982 131.177 95.0615 131.507 94.6349 131.74C94.2082 131.973 93.7349 132.09 93.2149 132.09ZM93.2149 131.29C93.5415 131.29 93.8482 131.213 94.1349 131.06C94.4215 130.907 94.6515 130.677 94.8249 130.37C95.0049 130.063 95.0949 129.69 95.0949 129.25C95.0949 128.81 95.0082 128.437 94.8349 128.13C94.6615 127.823 94.4349 127.597 94.1549 127.45C93.8749 127.297 93.5715 127.22 93.2449 127.22C92.9115 127.22 92.6049 127.297 92.3249 127.45C92.0515 127.597 91.8315 127.823 91.6649 128.13C91.4982 128.437 91.4149 128.81 91.4149 129.25C91.4149 129.697 91.4949 130.073 91.6549 130.38C91.8215 130.687 92.0415 130.917 92.3149 131.07C92.5882 131.217 92.8882 131.29 93.2149 131.29ZM99.1614 132.09C98.7414 132.09 98.3647 132.02 98.0314 131.88C97.698 131.733 97.4347 131.533 97.2414 131.28C97.048 131.02 96.9414 130.723 96.9214 130.39H97.8614C97.888 130.663 98.0147 130.887 98.2414 131.06C98.4747 131.233 98.778 131.32 99.1514 131.32C99.498 131.32 99.7714 131.243 99.9714 131.09C100.171 130.937 100.271 130.743 100.271 130.51C100.271 130.27 100.165 130.093 99.9514 129.98C99.738 129.86 99.408 129.743 98.9614 129.63C98.5547 129.523 98.2214 129.417 97.9614 129.31C97.708 129.197 97.488 129.033 97.3014 128.82C97.1214 128.6 97.0314 128.313 97.0314 127.96C97.0314 127.68 97.1147 127.423 97.2814 127.19C97.448 126.957 97.6847 126.773 97.9914 126.64C98.298 126.5 98.648 126.43 99.0414 126.43C99.648 126.43 100.138 126.583 100.511 126.89C100.885 127.197 101.085 127.617 101.111 128.15H100.201C100.181 127.863 100.065 127.633 99.8514 127.46C99.6447 127.287 99.3647 127.2 99.0114 127.2C98.6847 127.2 98.4247 127.27 98.2314 127.41C98.038 127.55 97.9414 127.733 97.9414 127.96C97.9414 128.14 97.998 128.29 98.1114 128.41C98.2314 128.523 98.378 128.617 98.5514 128.69C98.7314 128.757 98.978 128.833 99.2914 128.92C99.6847 129.027 100.005 129.133 100.251 129.24C100.498 129.34 100.708 129.493 100.881 129.7C101.061 129.907 101.155 130.177 101.161 130.51C101.161 130.81 101.078 131.08 100.911 131.32C100.745 131.56 100.508 131.75 100.201 131.89C99.9014 132.023 99.5547 132.09 99.1614 132.09ZM107.502 132.09C106.989 132.09 106.522 131.973 106.102 131.74C105.689 131.507 105.362 131.177 105.122 130.75C104.889 130.317 104.772 129.817 104.772 129.25C104.772 128.69 104.892 128.197 105.132 127.77C105.379 127.337 105.712 127.007 106.132 126.78C106.552 126.547 107.022 126.43 107.542 126.43C108.062 126.43 108.532 126.547 108.952 126.78C109.372 127.007 109.702 127.333 109.942 127.76C110.189 128.187 110.312 128.683 110.312 129.25C110.312 129.817 110.185 130.317 109.932 130.75C109.685 131.177 109.349 131.507 108.922 131.74C108.495 131.973 108.022 132.09 107.502 132.09ZM107.502 131.29C107.829 131.29 108.135 131.213 108.422 131.06C108.709 130.907 108.939 130.677 109.112 130.37C109.292 130.063 109.382 129.69 109.382 129.25C109.382 128.81 109.295 128.437 109.122 128.13C108.949 127.823 108.722 127.597 108.442 127.45C108.162 127.297 107.859 127.22 107.532 127.22C107.199 127.22 106.892 127.297 106.612 127.45C106.339 127.597 106.119 127.823 105.952 128.13C105.785 128.437 105.702 128.81 105.702 129.25C105.702 129.697 105.782 130.073 105.942 130.38C106.109 130.687 106.329 130.917 106.602 131.07C106.875 131.217 107.175 131.29 107.502 131.29ZM113.448 132.09C113.028 132.09 112.652 132.02 112.318 131.88C111.985 131.733 111.722 131.533 111.528 131.28C111.335 131.02 111.228 130.723 111.208 130.39H112.148C112.175 130.663 112.302 130.887 112.528 131.06C112.762 131.233 113.065 131.32 113.438 131.32C113.785 131.32 114.058 131.243 114.258 131.09C114.458 130.937 114.558 130.743 114.558 130.51C114.558 130.27 114.452 130.093 114.238 129.98C114.025 129.86 113.695 129.743 113.248 129.63C112.842 129.523 112.508 129.417 112.248 129.31C111.995 129.197 111.775 129.033 111.588 128.82C111.408 128.6 111.318 128.313 111.318 127.96C111.318 127.68 111.402 127.423 111.568 127.19C111.735 126.957 111.972 126.773 112.278 126.64C112.585 126.5 112.935 126.43 113.328 126.43C113.935 126.43 114.425 126.583 114.798 126.89C115.172 127.197 115.372 127.617 115.398 128.15H114.488C114.468 127.863 114.352 127.633 114.138 127.46C113.932 127.287 113.652 127.2 113.298 127.2C112.972 127.2 112.712 127.27 112.518 127.41C112.325 127.55 112.228 127.733 112.228 127.96C112.228 128.14 112.285 128.29 112.398 128.41C112.518 128.523 112.665 128.617 112.838 128.69C113.018 128.757 113.265 128.833 113.578 128.92C113.972 129.027 114.292 129.133 114.538 129.24C114.785 129.34 114.995 129.493 115.168 129.7C115.348 129.907 115.442 130.177 115.448 130.51C115.448 130.81 115.365 131.08 115.198 131.32C115.032 131.56 114.795 131.75 114.488 131.89C114.188 132.023 113.842 132.09 113.448 132.09ZM119.059 129.24C119.059 128.68 119.172 128.19 119.399 127.77C119.626 127.343 119.936 127.013 120.329 126.78C120.729 126.547 121.176 126.43 121.669 126.43C122.096 126.43 122.492 126.53 122.859 126.73C123.226 126.923 123.506 127.18 123.699 127.5V124.6H124.619V132H123.699V130.97C123.519 131.297 123.252 131.567 122.899 131.78C122.546 131.987 122.132 132.09 121.659 132.09C121.172 132.09 120.729 131.97 120.329 131.73C119.936 131.49 119.626 131.153 119.399 130.72C119.172 130.287 119.059 129.793 119.059 129.24ZM123.699 129.25C123.699 128.837 123.616 128.477 123.449 128.17C123.282 127.863 123.056 127.63 122.769 127.47C122.489 127.303 122.179 127.22 121.839 127.22C121.499 127.22 121.189 127.3 120.909 127.46C120.629 127.62 120.406 127.853 120.239 128.16C120.072 128.467 119.989 128.827 119.989 129.24C119.989 129.66 120.072 130.027 120.239 130.34C120.406 130.647 120.629 130.883 120.909 131.05C121.189 131.21 121.499 131.29 121.839 131.29C122.179 131.29 122.489 131.21 122.769 131.05C123.056 130.883 123.282 130.647 123.449 130.34C123.616 130.027 123.699 129.663 123.699 129.25ZM126.627 125.63C126.454 125.63 126.307 125.57 126.187 125.45C126.067 125.33 126.007 125.183 126.007 125.01C126.007 124.837 126.067 124.69 126.187 124.57C126.307 124.45 126.454 124.39 126.627 124.39C126.794 124.39 126.934 124.45 127.047 124.57C127.167 124.69 127.227 124.837 127.227 125.01C127.227 125.183 127.167 125.33 127.047 125.45C126.934 125.57 126.794 125.63 126.627 125.63ZM127.067 126.52V132H126.157V126.52H127.067ZM129.528 127.41C129.688 127.097 129.915 126.853 130.208 126.68C130.508 126.507 130.871 126.42 131.298 126.42V127.36H131.058C130.038 127.36 129.528 127.913 129.528 129.02V132H128.618V126.52H129.528V127.41ZM137.348 129.05C137.348 129.223 137.338 129.407 137.318 129.6H132.938C132.972 130.14 133.155 130.563 133.488 130.87C133.828 131.17 134.238 131.32 134.718 131.32C135.112 131.32 135.438 131.23 135.698 131.05C135.965 130.863 136.152 130.617 136.258 130.31H137.238C137.092 130.837 136.798 131.267 136.358 131.6C135.918 131.927 135.372 132.09 134.718 132.09C134.198 132.09 133.732 131.973 133.318 131.74C132.912 131.507 132.592 131.177 132.358 130.75C132.125 130.317 132.008 129.817 132.008 129.25C132.008 128.683 132.122 128.187 132.348 127.76C132.575 127.333 132.892 127.007 133.298 126.78C133.712 126.547 134.185 126.43 134.718 126.43C135.238 126.43 135.698 126.543 136.098 126.77C136.498 126.997 136.805 127.31 137.018 127.71C137.238 128.103 137.348 128.55 137.348 129.05ZM136.408 128.86C136.408 128.513 136.332 128.217 136.178 127.97C136.025 127.717 135.815 127.527 135.548 127.4C135.288 127.267 134.998 127.2 134.678 127.2C134.218 127.2 133.825 127.347 133.498 127.64C133.178 127.933 132.995 128.34 132.948 128.86H136.408ZM139.019 125.63C138.846 125.63 138.699 125.57 138.579 125.45C138.459 125.33 138.399 125.183 138.399 125.01C138.399 124.837 138.459 124.69 138.579 124.57C138.699 124.45 138.846 124.39 139.019 124.39C139.186 124.39 139.326 124.45 139.439 124.57C139.559 124.69 139.619 124.837 139.619 125.01C139.619 125.183 139.559 125.33 139.439 125.45C139.326 125.57 139.186 125.63 139.019 125.63ZM139.459 126.52V132H138.549V126.52H139.459ZM142.12 127.27V130.5C142.12 130.767 142.177 130.957 142.29 131.07C142.404 131.177 142.6 131.23 142.88 131.23H143.55V132H142.73C142.224 132 141.844 131.883 141.59 131.65C141.337 131.417 141.21 131.033 141.21 130.5V127.27H140.5V126.52H141.21V125.14H142.12V126.52H143.55V127.27H142.12ZM147.043 132.09C146.53 132.09 146.063 131.973 145.643 131.74C145.23 131.507 144.903 131.177 144.663 130.75C144.43 130.317 144.313 129.817 144.313 129.25C144.313 128.69 144.433 128.197 144.673 127.77C144.92 127.337 145.253 127.007 145.673 126.78C146.093 126.547 146.563 126.43 147.083 126.43C147.603 126.43 148.073 126.547 148.493 126.78C148.913 127.007 149.243 127.333 149.483 127.76C149.73 128.187 149.853 128.683 149.853 129.25C149.853 129.817 149.726 130.317 149.473 130.75C149.226 131.177 148.89 131.507 148.463 131.74C148.036 131.973 147.563 132.09 147.043 132.09ZM147.043 131.29C147.37 131.29 147.676 131.213 147.963 131.06C148.25 130.907 148.48 130.677 148.653 130.37C148.833 130.063 148.923 129.69 148.923 129.25C148.923 128.81 148.836 128.437 148.663 128.13C148.49 127.823 148.263 127.597 147.983 127.45C147.703 127.297 147.4 127.22 147.073 127.22C146.74 127.22 146.433 127.297 146.153 127.45C145.88 127.597 145.66 127.823 145.493 128.13C145.326 128.437 145.243 128.81 145.243 129.25C145.243 129.697 145.323 130.073 145.483 130.38C145.65 130.687 145.87 130.917 146.143 131.07C146.416 131.217 146.716 131.29 147.043 131.29ZM152.989 132.09C152.569 132.09 152.193 132.02 151.859 131.88C151.526 131.733 151.263 131.533 151.069 131.28C150.876 131.02 150.769 130.723 150.749 130.39H151.689C151.716 130.663 151.843 130.887 152.069 131.06C152.303 131.233 152.606 131.32 152.979 131.32C153.326 131.32 153.599 131.243 153.799 131.09C153.999 130.937 154.099 130.743 154.099 130.51C154.099 130.27 153.993 130.093 153.779 129.98C153.566 129.86 153.236 129.743 152.789 129.63C152.383 129.523 152.049 129.417 151.789 129.31C151.536 129.197 151.316 129.033 151.129 128.82C150.949 128.6 150.859 128.313 150.859 127.96C150.859 127.68 150.943 127.423 151.109 127.19C151.276 126.957 151.513 126.773 151.819 126.64C152.126 126.5 152.476 126.43 152.869 126.43C153.476 126.43 153.966 126.583 154.339 126.89C154.713 127.197 154.913 127.617 154.939 128.15H154.029C154.009 127.863 153.893 127.633 153.679 127.46C153.473 127.287 153.193 127.2 152.839 127.2C152.513 127.2 152.253 127.27 152.059 127.41C151.866 127.55 151.769 127.733 151.769 127.96C151.769 128.14 151.826 128.29 151.939 128.41C152.059 128.523 152.206 128.617 152.379 128.69C152.559 128.757 152.806 128.833 153.119 128.92C153.513 129.027 153.833 129.133 154.079 129.24C154.326 129.34 154.536 129.493 154.709 129.7C154.889 129.907 154.983 130.177 154.989 130.51C154.989 130.81 154.906 131.08 154.739 131.32C154.573 131.56 154.336 131.75 154.029 131.89C153.729 132.023 153.383 132.09 152.989 132.09ZM159.85 127.41C160.01 127.097 160.237 126.853 160.53 126.68C160.83 126.507 161.193 126.42 161.62 126.42V127.36H161.38C160.36 127.36 159.85 127.913 159.85 129.02V132H158.94V126.52H159.85V127.41ZM167.671 129.05C167.671 129.223 167.661 129.407 167.641 129.6H163.261C163.294 130.14 163.477 130.563 163.811 130.87C164.151 131.17 164.561 131.32 165.041 131.32C165.434 131.32 165.761 131.23 166.021 131.05C166.287 130.863 166.474 130.617 166.581 130.31H167.561C167.414 130.837 167.121 131.267 166.681 131.6C166.241 131.927 165.694 132.09 165.041 132.09C164.521 132.09 164.054 131.973 163.641 131.74C163.234 131.507 162.914 131.177 162.681 130.75C162.447 130.317 162.331 129.817 162.331 129.25C162.331 128.683 162.444 128.187 162.671 127.76C162.897 127.333 163.214 127.007 163.621 126.78C164.034 126.547 164.507 126.43 165.041 126.43C165.561 126.43 166.021 126.543 166.421 126.77C166.821 126.997 167.127 127.31 167.341 127.71C167.561 128.103 167.671 128.55 167.671 129.05ZM166.731 128.86C166.731 128.513 166.654 128.217 166.501 127.97C166.347 127.717 166.137 127.527 165.871 127.4C165.611 127.267 165.321 127.2 165.001 127.2C164.541 127.2 164.147 127.347 163.821 127.64C163.501 127.933 163.317 128.34 163.271 128.86H166.731ZM170.812 132.09C170.392 132.09 170.015 132.02 169.682 131.88C169.348 131.733 169.085 131.533 168.892 131.28C168.698 131.02 168.592 130.723 168.572 130.39H169.512C169.538 130.663 169.665 130.887 169.892 131.06C170.125 131.233 170.428 131.32 170.802 131.32C171.148 131.32 171.422 131.243 171.622 131.09C171.822 130.937 171.922 130.743 171.922 130.51C171.922 130.27 171.815 130.093 171.602 129.98C171.388 129.86 171.058 129.743 170.612 129.63C170.205 129.523 169.872 129.417 169.612 129.31C169.358 129.197 169.138 129.033 168.952 128.82C168.772 128.6 168.682 128.313 168.682 127.96C168.682 127.68 168.765 127.423 168.932 127.19C169.098 126.957 169.335 126.773 169.642 126.64C169.948 126.5 170.298 126.43 170.692 126.43C171.298 126.43 171.788 126.583 172.162 126.89C172.535 127.197 172.735 127.617 172.762 128.15H171.852C171.832 127.863 171.715 127.633 171.502 127.46C171.295 127.287 171.015 127.2 170.662 127.2C170.335 127.2 170.075 127.27 169.882 127.41C169.688 127.55 169.592 127.733 169.592 127.96C169.592 128.14 169.648 128.29 169.762 128.41C169.882 128.523 170.028 128.617 170.202 128.69C170.382 128.757 170.628 128.833 170.942 128.92C171.335 129.027 171.655 129.133 171.902 129.24C172.148 129.34 172.358 129.493 172.532 129.7C172.712 129.907 172.805 130.177 172.812 130.51C172.812 130.81 172.728 131.08 172.562 131.32C172.395 131.56 172.158 131.75 171.852 131.89C171.552 132.023 171.205 132.09 170.812 132.09ZM179.096 129.05C179.096 129.223 179.086 129.407 179.066 129.6H174.686C174.72 130.14 174.903 130.563 175.236 130.87C175.576 131.17 175.986 131.32 176.466 131.32C176.86 131.32 177.186 131.23 177.446 131.05C177.713 130.863 177.9 130.617 178.006 130.31H178.986C178.84 130.837 178.546 131.267 178.106 131.6C177.666 131.927 177.12 132.09 176.466 132.09C175.946 132.09 175.48 131.973 175.066 131.74C174.66 131.507 174.34 131.177 174.106 130.75C173.873 130.317 173.756 129.817 173.756 129.25C173.756 128.683 173.87 128.187 174.096 127.76C174.323 127.333 174.64 127.007 175.046 126.78C175.46 126.547 175.933 126.43 176.466 126.43C176.986 126.43 177.446 126.543 177.846 126.77C178.246 126.997 178.553 127.31 178.766 127.71C178.986 128.103 179.096 128.55 179.096 129.05ZM178.156 128.86C178.156 128.513 178.08 128.217 177.926 127.97C177.773 127.717 177.563 127.527 177.296 127.4C177.036 127.267 176.746 127.2 176.426 127.2C175.966 127.2 175.573 127.347 175.246 127.64C174.926 127.933 174.743 128.34 174.696 128.86H178.156ZM181.208 127.41C181.368 127.097 181.594 126.853 181.888 126.68C182.188 126.507 182.551 126.42 182.978 126.42V127.36H182.738C181.718 127.36 181.208 127.913 181.208 129.02V132H180.298V126.52H181.208V127.41ZM186.068 131.16L187.768 126.52H188.738L186.588 132H185.528L183.378 126.52H184.358L186.068 131.16ZM189.293 129.24C189.293 128.68 189.407 128.19 189.633 127.77C189.86 127.343 190.17 127.013 190.563 126.78C190.963 126.547 191.407 126.43 191.893 126.43C192.373 126.43 192.79 126.533 193.143 126.74C193.497 126.947 193.76 127.207 193.933 127.52V126.52H194.853V132H193.933V130.98C193.753 131.3 193.483 131.567 193.123 131.78C192.77 131.987 192.357 132.09 191.883 132.09C191.397 132.09 190.957 131.97 190.563 131.73C190.17 131.49 189.86 131.153 189.633 130.72C189.407 130.287 189.293 129.793 189.293 129.24ZM193.933 129.25C193.933 128.837 193.85 128.477 193.683 128.17C193.517 127.863 193.29 127.63 193.003 127.47C192.723 127.303 192.413 127.22 192.073 127.22C191.733 127.22 191.423 127.3 191.143 127.46C190.863 127.62 190.64 127.853 190.473 128.16C190.307 128.467 190.223 128.827 190.223 129.24C190.223 129.66 190.307 130.027 190.473 130.34C190.64 130.647 190.863 130.883 191.143 131.05C191.423 131.21 191.733 131.29 192.073 131.29C192.413 131.29 192.723 131.21 193.003 131.05C193.29 130.883 193.517 130.647 193.683 130.34C193.85 130.027 193.933 129.663 193.933 129.25ZM196.051 129.24C196.051 128.68 196.165 128.19 196.391 127.77C196.618 127.343 196.928 127.013 197.321 126.78C197.721 126.547 198.168 126.43 198.661 126.43C199.088 126.43 199.485 126.53 199.851 126.73C200.218 126.923 200.498 127.18 200.691 127.5V124.6H201.611V132H200.691V130.97C200.511 131.297 200.245 131.567 199.891 131.78C199.538 131.987 199.125 132.09 198.651 132.09C198.165 132.09 197.721 131.97 197.321 131.73C196.928 131.49 196.618 131.153 196.391 130.72C196.165 130.287 196.051 129.793 196.051 129.24ZM200.691 129.25C200.691 128.837 200.608 128.477 200.441 128.17C200.275 127.863 200.048 127.63 199.761 127.47C199.481 127.303 199.171 127.22 198.831 127.22C198.491 127.22 198.181 127.3 197.901 127.46C197.621 127.62 197.398 127.853 197.231 128.16C197.065 128.467 196.981 128.827 196.981 129.24C196.981 129.66 197.065 130.027 197.231 130.34C197.398 130.647 197.621 130.883 197.901 131.05C198.181 131.21 198.491 131.29 198.831 131.29C199.171 131.29 199.481 131.21 199.761 131.05C200.048 130.883 200.275 130.647 200.441 130.34C200.608 130.027 200.691 129.663 200.691 129.25ZM205.539 132.09C205.026 132.09 204.559 131.973 204.139 131.74C203.726 131.507 203.399 131.177 203.159 130.75C202.926 130.317 202.809 129.817 202.809 129.25C202.809 128.69 202.929 128.197 203.169 127.77C203.416 127.337 203.749 127.007 204.169 126.78C204.589 126.547 205.059 126.43 205.579 126.43C206.099 126.43 206.569 126.547 206.989 126.78C207.409 127.007 207.739 127.333 207.979 127.76C208.226 128.187 208.349 128.683 208.349 129.25C208.349 129.817 208.222 130.317 207.969 130.75C207.722 131.177 207.386 131.507 206.959 131.74C206.532 131.973 206.059 132.09 205.539 132.09ZM205.539 131.29C205.866 131.29 206.172 131.213 206.459 131.06C206.746 130.907 206.976 130.677 207.149 130.37C207.329 130.063 207.419 129.69 207.419 129.25C207.419 128.81 207.332 128.437 207.159 128.13C206.986 127.823 206.759 127.597 206.479 127.45C206.199 127.297 205.896 127.22 205.569 127.22C205.236 127.22 204.929 127.297 204.649 127.45C204.376 127.597 204.156 127.823 203.989 128.13C203.822 128.437 203.739 128.81 203.739 129.25C203.739 129.697 203.819 130.073 203.979 130.38C204.146 130.687 204.366 130.917 204.639 131.07C204.912 131.217 205.212 131.29 205.539 131.29ZM211.486 132.09C211.066 132.09 210.689 132.02 210.356 131.88C210.022 131.733 209.759 131.533 209.566 131.28C209.372 131.02 209.266 130.723 209.246 130.39H210.186C210.212 130.663 210.339 130.887 210.566 131.06C210.799 131.233 211.102 131.32 211.476 131.32C211.822 131.32 212.096 131.243 212.296 131.09C212.496 130.937 212.596 130.743 212.596 130.51C212.596 130.27 212.489 130.093 212.276 129.98C212.062 129.86 211.732 129.743 211.286 129.63C210.879 129.523 210.546 129.417 210.286 129.31C210.032 129.197 209.812 129.033 209.626 128.82C209.446 128.6 209.356 128.313 209.356 127.96C209.356 127.68 209.439 127.423 209.606 127.19C209.772 126.957 210.009 126.773 210.316 126.64C210.622 126.5 210.972 126.43 211.366 126.43C211.972 126.43 212.462 126.583 212.836 126.89C213.209 127.197 213.409 127.617 213.436 128.15H212.526C212.506 127.863 212.389 127.633 212.176 127.46C211.969 127.287 211.689 127.2 211.336 127.2C211.009 127.2 210.749 127.27 210.556 127.41C210.362 127.55 210.266 127.733 210.266 127.96C210.266 128.14 210.322 128.29 210.436 128.41C210.556 128.523 210.702 128.617 210.876 128.69C211.056 128.757 211.302 128.833 211.616 128.92C212.009 129.027 212.329 129.133 212.576 129.24C212.822 129.34 213.032 129.493 213.206 129.7C213.386 129.907 213.479 130.177 213.486 130.51C213.486 130.81 213.402 131.08 213.236 131.32C213.069 131.56 212.832 131.75 212.526 131.89C212.226 132.023 211.879 132.09 211.486 132.09ZM223.302 124.96C223.976 124.96 224.576 125.113 225.102 125.42C225.629 125.72 226.036 126.14 226.322 126.68C226.616 127.213 226.762 127.823 226.762 128.51C226.762 129.197 226.616 129.81 226.322 130.35C226.036 130.883 225.629 131.303 225.102 131.61C224.576 131.91 223.976 132.06 223.302 132.06C222.622 132.06 222.019 131.91 221.492 131.61C220.966 131.303 220.556 130.883 220.262 130.35C219.969 129.81 219.822 129.197 219.822 128.51C219.822 127.823 219.969 127.213 220.262 126.68C220.556 126.14 220.966 125.72 221.492 125.42C222.019 125.113 222.622 124.96 223.302 124.96ZM223.302 125.36C222.682 125.36 222.142 125.493 221.682 125.76C221.222 126.02 220.869 126.387 220.622 126.86C220.376 127.333 220.252 127.883 220.252 128.51C220.252 129.13 220.376 129.68 220.622 130.16C220.869 130.633 221.222 131.003 221.682 131.27C222.142 131.537 222.682 131.67 223.302 131.67C223.916 131.67 224.449 131.537 224.902 131.27C225.362 131.003 225.716 130.633 225.962 130.16C226.209 129.68 226.332 129.13 226.332 128.51C226.332 127.883 226.209 127.333 225.962 126.86C225.716 126.387 225.362 126.02 224.902 125.76C224.449 125.493 223.916 125.36 223.302 125.36ZM223.282 126.19C222.882 126.19 222.516 126.283 222.182 126.47C221.856 126.657 221.596 126.927 221.402 127.28C221.209 127.627 221.112 128.033 221.112 128.5C221.112 128.967 221.209 129.377 221.402 129.73C221.596 130.077 221.856 130.347 222.182 130.54C222.516 130.727 222.882 130.82 223.282 130.82C223.782 130.82 224.216 130.687 224.582 130.42C224.949 130.147 225.199 129.783 225.332 129.33H224.492C224.292 129.883 223.889 130.16 223.282 130.16C222.882 130.16 222.556 130.017 222.302 129.73C222.049 129.443 221.922 129.037 221.922 128.51C221.922 127.977 222.049 127.567 222.302 127.28C222.556 126.993 222.882 126.85 223.282 126.85C223.576 126.85 223.829 126.923 224.042 127.07C224.256 127.21 224.406 127.413 224.492 127.68H225.332C225.206 127.207 224.959 126.84 224.592 126.58C224.226 126.32 223.789 126.19 223.282 126.19ZM227.762 131.27C228.609 130.59 229.272 130.033 229.752 129.6C230.232 129.16 230.635 128.703 230.962 128.23C231.295 127.75 231.462 127.28 231.462 126.82C231.462 126.387 231.355 126.047 231.142 125.8C230.935 125.547 230.599 125.42 230.132 125.42C229.679 125.42 229.325 125.563 229.072 125.85C228.825 126.13 228.692 126.507 228.672 126.98H227.792C227.819 126.233 228.045 125.657 228.472 125.25C228.899 124.843 229.449 124.64 230.122 124.64C230.809 124.64 231.352 124.83 231.752 125.21C232.159 125.59 232.362 126.113 232.362 126.78C232.362 127.333 232.195 127.873 231.862 128.4C231.535 128.92 231.162 129.38 230.742 129.78C230.322 130.173 229.785 130.633 229.132 131.16H232.572V131.92H227.762V131.27ZM233.624 128.31C233.624 127.163 233.811 126.27 234.184 125.63C234.557 124.983 235.211 124.66 236.144 124.66C237.071 124.66 237.721 124.983 238.094 125.63C238.467 126.27 238.654 127.163 238.654 128.31C238.654 129.477 238.467 130.383 238.094 131.03C237.721 131.677 237.071 132 236.144 132C235.211 132 234.557 131.677 234.184 131.03C233.811 130.383 233.624 129.477 233.624 128.31ZM237.754 128.31C237.754 127.73 237.714 127.24 237.634 126.84C237.561 126.433 237.404 126.107 237.164 125.86C236.931 125.613 236.591 125.49 236.144 125.49C235.691 125.49 235.344 125.613 235.104 125.86C234.871 126.107 234.714 126.433 234.634 126.84C234.561 127.24 234.524 127.73 234.524 128.31C234.524 128.91 234.561 129.413 234.634 129.82C234.714 130.227 234.871 130.553 235.104 130.8C235.344 131.047 235.691 131.17 236.144 131.17C236.591 131.17 236.931 131.047 237.164 130.8C237.404 130.553 237.561 130.227 237.634 129.82C237.714 129.413 237.754 128.91 237.754 128.31ZM239.793 131.27C240.64 130.59 241.303 130.033 241.783 129.6C242.263 129.16 242.667 128.703 242.993 128.23C243.327 127.75 243.493 127.28 243.493 126.82C243.493 126.387 243.387 126.047 243.173 125.8C242.967 125.547 242.63 125.42 242.163 125.42C241.71 125.42 241.357 125.563 241.103 125.85C240.857 126.13 240.723 126.507 240.703 126.98H239.823C239.85 126.233 240.077 125.657 240.503 125.25C240.93 124.843 241.48 124.64 242.153 124.64C242.84 124.64 243.383 124.83 243.783 125.21C244.19 125.59 244.393 126.113 244.393 126.78C244.393 127.333 244.227 127.873 243.893 128.4C243.567 128.92 243.193 129.38 242.773 129.78C242.353 130.173 241.817 130.633 241.163 131.16H244.603V131.92H239.793V131.27ZM245.545 131.27C246.392 130.59 247.055 130.033 247.535 129.6C248.015 129.16 248.419 128.703 248.745 128.23C249.079 127.75 249.245 127.28 249.245 126.82C249.245 126.387 249.139 126.047 248.925 125.8C248.719 125.547 248.382 125.42 247.915 125.42C247.462 125.42 247.109 125.563 246.855 125.85C246.609 126.13 246.475 126.507 246.455 126.98H245.575C245.602 126.233 245.829 125.657 246.255 125.25C246.682 124.843 247.232 124.64 247.905 124.64C248.592 124.64 249.135 124.83 249.535 125.21C249.942 125.59 250.145 126.113 250.145 126.78C250.145 127.333 249.979 127.873 249.645 128.4C249.319 128.92 248.945 129.38 248.525 129.78C248.105 130.173 247.569 130.633 246.915 131.16H250.355V131.92H245.545V131.27ZM256.163 132.09C255.743 132.09 255.367 132.02 255.033 131.88C254.7 131.733 254.437 131.533 254.243 131.28C254.05 131.02 253.943 130.723 253.923 130.39H254.863C254.89 130.663 255.017 130.887 255.243 131.06C255.477 131.233 255.78 131.32 256.153 131.32C256.5 131.32 256.773 131.243 256.973 131.09C257.173 130.937 257.273 130.743 257.273 130.51C257.273 130.27 257.167 130.093 256.953 129.98C256.74 129.86 256.41 129.743 255.963 129.63C255.557 129.523 255.223 129.417 254.963 129.31C254.71 129.197 254.49 129.033 254.303 128.82C254.123 128.6 254.033 128.313 254.033 127.96C254.033 127.68 254.117 127.423 254.283 127.19C254.45 126.957 254.687 126.773 254.993 126.64C255.3 126.5 255.65 126.43 256.043 126.43C256.65 126.43 257.14 126.583 257.513 126.89C257.887 127.197 258.087 127.617 258.113 128.15H257.203C257.183 127.863 257.067 127.633 256.853 127.46C256.647 127.287 256.367 127.2 256.013 127.2C255.687 127.2 255.427 127.27 255.233 127.41C255.04 127.55 254.943 127.733 254.943 127.96C254.943 128.14 255 128.29 255.113 128.41C255.233 128.523 255.38 128.617 255.553 128.69C255.733 128.757 255.98 128.833 256.293 128.92C256.687 129.027 257.007 129.133 257.253 129.24C257.5 129.34 257.71 129.493 257.883 129.7C258.063 129.907 258.157 130.177 258.163 130.51C258.163 130.81 258.08 131.08 257.913 131.32C257.747 131.56 257.51 131.75 257.203 131.89C256.903 132.023 256.557 132.09 256.163 132.09ZM260.558 127.27V130.5C260.558 130.767 260.615 130.957 260.728 131.07C260.841 131.177 261.038 131.23 261.318 131.23H261.988V132H261.168C260.661 132 260.281 131.883 260.028 131.65C259.775 131.417 259.648 131.033 259.648 130.5V127.27H258.938V126.52H259.648V125.14H260.558V126.52H261.988V127.27H260.558ZM264 127.41C264.16 127.097 264.387 126.853 264.68 126.68C264.98 126.507 265.344 126.42 265.77 126.42V127.36H265.53C264.51 127.36 264 127.913 264 129.02V132H263.09V126.52H264V127.41ZM269.981 132.07C269.334 132.07 268.744 131.92 268.211 131.62C267.678 131.313 267.254 130.89 266.941 130.35C266.634 129.803 266.481 129.19 266.481 128.51C266.481 127.83 266.634 127.22 266.941 126.68C267.254 126.133 267.678 125.71 268.211 125.41C268.744 125.103 269.334 124.95 269.981 124.95C270.634 124.95 271.228 125.103 271.761 125.41C272.294 125.71 272.714 126.13 273.021 126.67C273.328 127.21 273.481 127.823 273.481 128.51C273.481 129.197 273.328 129.81 273.021 130.35C272.714 130.89 272.294 131.313 271.761 131.62C271.228 131.92 270.634 132.07 269.981 132.07ZM269.981 131.28C270.468 131.28 270.904 131.167 271.291 130.94C271.684 130.713 271.991 130.39 272.211 129.97C272.438 129.55 272.551 129.063 272.551 128.51C272.551 127.95 272.438 127.463 272.211 127.05C271.991 126.63 271.688 126.307 271.301 126.08C270.914 125.853 270.474 125.74 269.981 125.74C269.488 125.74 269.048 125.853 268.661 126.08C268.274 126.307 267.968 126.63 267.741 127.05C267.521 127.463 267.411 127.95 267.411 128.51C267.411 129.063 267.521 129.55 267.741 129.97C267.968 130.39 268.274 130.713 268.661 130.94C269.054 131.167 269.494 131.28 269.981 131.28ZM280.162 132H279.252L275.592 126.45V132H274.682V125.02H275.592L279.252 130.56V125.02H280.162V132ZM286.994 127.05C286.8 126.643 286.52 126.33 286.154 126.11C285.787 125.883 285.36 125.77 284.874 125.77C284.387 125.77 283.947 125.883 283.554 126.11C283.167 126.33 282.86 126.65 282.634 127.07C282.414 127.483 282.304 127.963 282.304 128.51C282.304 129.057 282.414 129.537 282.634 129.95C282.86 130.363 283.167 130.683 283.554 130.91C283.947 131.13 284.387 131.24 284.874 131.24C285.554 131.24 286.114 131.037 286.554 130.63C286.994 130.223 287.25 129.673 287.324 128.98H284.544V128.24H288.294V128.94C288.24 129.513 288.06 130.04 287.754 130.52C287.447 130.993 287.044 131.37 286.544 131.65C286.044 131.923 285.487 132.06 284.874 132.06C284.227 132.06 283.637 131.91 283.104 131.61C282.57 131.303 282.147 130.88 281.834 130.34C281.527 129.8 281.374 129.19 281.374 128.51C281.374 127.83 281.527 127.22 281.834 126.68C282.147 126.133 282.57 125.71 283.104 125.41C283.637 125.103 284.227 124.95 284.874 124.95C285.614 124.95 286.267 125.133 286.834 125.5C287.407 125.867 287.824 126.383 288.084 127.05H286.994Z" fill="white"/>
<defs>
<linearGradient id="paint0_linear_807_7673" x1="-533" y1="83.6905" x2="914" y2="83.6906" gradientUnits="userSpaceOnUse">
<stop stop-color="#B224EF"/>
<stop offset="1" stop-color="#7579FF"/>
</linearGradient>
<linearGradient id="paint1_linear_807_7673" x1="-533" y1="96.2857" x2="914" y2="96.2858" gradientUnits="userSpaceOnUse">
<stop stop-color="#B224EF"/>
<stop offset="1" stop-color="#7579FF"/>
</linearGradient>
<linearGradient id="paint2_linear_807_7673" x1="-533" y1="103.952" x2="914" y2="103.953" gradientUnits="userSpaceOnUse">
<stop offset="0.427083" stop-color="#B224EF"/>
<stop offset="0.817708" stop-color="#7579FF"/>
</linearGradient>
</defs>
</svg>
