<svg width="41" height="37" viewBox="0 0 41 37" fill="none" xmlns="http://www.w3.org/2000/svg">
<path d="M30.6477 6.95844C27.5566 7.044 27.5574 11.0592 30.6477 11.144C33.7388 11.0584 33.738 7.04326 30.6477 6.95844ZM20.3363 9.38135C14.8577 9.38135 10.4167 13.4017 10.4167 18.361C10.9393 30.2725 29.735 30.2692 30.2556 18.361C30.256 13.4017 25.8145 9.38135 20.3363 9.38135ZM20.3363 24.1899C16.7803 24.1899 13.8975 21.58 13.8975 18.361C14.2367 10.6292 26.4377 10.631 26.7756 18.361C26.7752 21.5804 23.8924 24.1899 20.3363 24.1899Z" fill="white"/>
<path d="M39.5371 11.1701C39.3939 5.04964 35.081 1.15344 28.3004 1.02528C26.6723 0.883529 14.0012 0.880958 12.3718 1.02528C5.59289 1.15454 1.27752 5.04854 1.13557 11.1705C0.978576 12.6382 0.975322 24.0823 1.13557 25.5519C1.26206 31.6525 5.61404 35.5829 12.3718 35.6967C13.9999 35.8399 26.6711 35.8399 28.3004 35.6967C30.3565 35.6119 31.7609 35.317 32.9896 34.8859C37.2956 33.3329 39.3996 29.8785 39.5371 25.5515C39.6941 24.0815 39.6969 12.6412 39.5371 11.1701ZM28.1418 32.5573C26.5397 32.6954 14.1337 32.6976 12.5304 32.5573C10.6473 32.4799 9.62437 32.1956 8.94351 31.9569C3.06671 29.4958 4.88885 24.5189 4.61187 17.6875C4.61797 16.1008 4.60821 12.9004 4.61227 11.3137C4.84695 6.58315 7.31457 4.39305 12.5304 4.16464C14.1346 4.02656 26.5373 4.02436 28.1418 4.16464C33.3829 4.37652 35.8062 6.60445 36.06 11.3133C36.1637 12.444 36.2389 18.6162 36.06 21.7398C36.2532 27.6065 35.9571 32.2133 28.1418 32.5573Z" fill="white"/>
</svg>
