<svg width="42" height="37" viewBox="0 0 42 37" fill="none" xmlns="http://www.w3.org/2000/svg">
<path d="M37.6591 0.922819C31.7165 0.907763 9.79755 0.933101 4.73136 0.922819C3.15489 0.922819 1.87573 2.04247 1.87573 3.42138V33.3061C1.87573 34.6854 3.15489 35.8039 4.73136 35.8039H37.6591C39.2364 35.8039 40.5148 34.6854 40.5148 33.3057V3.42138C40.5148 2.04247 39.2364 0.922819 37.6591 0.922819Z" fill="url(#paint0_linear_124_721)"/>
<path d="M22.5997 30.1139C22.5997 30.1139 22.5997 21.3454 22.5997 21.345C22.5431 19.7337 23.61 18.2299 25.7567 18.1623C27.8485 18.1623 28.6855 19.6022 28.6855 21.7133V30.1135H34.4667V21.1096C34.4667 16.2862 31.6148 14.0418 27.8107 14.0418C24.6919 14.0418 23.322 15.6153 22.561 16.6872L22.5997 14.4104H16.8185C16.8937 15.8837 16.8181 30.1139 16.8181 30.1139H22.5997ZM13.6179 23.3041V14.4101H7.8359V30.1135H13.6183C13.6171 28.4647 13.6204 24.9298 13.6179 23.3041ZM10.7281 12.2666C12.7439 12.2666 13.999 11.0607 13.999 9.55396C13.9824 5.91959 7.48978 5.95998 7.49507 9.5536C7.49059 11.072 8.78032 12.2853 10.7281 12.2666Z" fill="white"/>
<defs>
<linearGradient id="paint0_linear_124_721" x1="1.87573" y1="18.3609" x2="40.5148" y2="18.3609" gradientUnits="userSpaceOnUse">
<stop stop-color="#B224EF"/>
<stop offset="1" stop-color="#7579FF"/>
</linearGradient>
</defs>
</svg>
